{
  "accessors": [
    {
      "bufferView": 2,
      "componentType": 5126,
      "count": 1736,
      "max": [
        1.6136897802352905,
        1.8303381204605103,
        2.4708352088928223
      ],
      "min": [
        -3.1229615211486816,
        -1.8765965700149536,
        -0.04102683067321777
      ],
      "type": "VEC3"
    },
    {
      "bufferView": 2,
      "byteOffset": 20832,
      "componentType": 5126,
      "count": 1736,
      "max": [
        1.0,
        1.0,
        1.0
      ],
      "min": [
        -1.0,
        -1.0,
        -1.0
      ],
      "type": "VEC3"
    },
    {
      "bufferView": 3,
      "componentType": 5126,
      "count": 1736,
      "max": [
        1.0,
        1.0,
        1.0,
        1.0
      ],
      "min": [
        -1.0,
        -1.0,
        -1.0,
        -1.0
      ],
      "type": "VEC4"
    },
    {
      "bufferView": 1,
      "componentType": 5126,
      "count": 1736,
      "max": [
        0.9966681599617004,
        0.9756782054901123
      ],
      "min": [
        0.00039057774120010436,
        0.0003905777120962739
      ],
      "type": "VEC2"
    },
    {
      "bufferView": 0,
      "componentType": 5125,
      "count": 5688,
      "type": "SCALAR"
    },
    {
      "bufferView": 2,
      "byteOffset": 41664,
      "componentType": 5126,
      "count": 82,
      "max": [
        1.3217214345932007,
        -1.0618016719818115,
        1.2874830961227417
      ],
      "min": [
        -3.1139001846313477,
        -1.8765965700149536,
        0.03552374616265297
      ],
      "type": "VEC3"
    },
    {
      "bufferView": 2,
      "byteOffset": 42648,
      "componentType": 5126,
      "count": 82,
      "max": [
        0.995498776435852,
        0.9747276902198792,
        1.0
      ],
      "min": [
        -0.995498776435852,
        -0.9905082583427429,
        -0.4063890278339386
      ],
      "type": "VEC3"
    },
    {
      "bufferView": 1,
      "byteOffset": 13888,
      "componentType": 5126,
      "count": 82,
      "max": [
        0.9132096767425537,
        0.9649438261985779
      ],
      "min": [
        0.025631899014115334,
        0.1961391121149063
      ],
      "type": "VEC2"
    },
    {
      "bufferView": 0,
      "byteOffset": 22752,
      "componentType": 5125,
      "count": 174,
      "type": "SCALAR"
    },
    {
      "bufferView": 2,
      "byteOffset": 43632,
      "componentType": 5126,
      "count": 29,
      "max": [
        1.542345404624939,
        -0.2668479084968567,
        2.3994908332824707
      ],
      "min": [
        -1.542345404624939,
        -0.2668479382991791,
        0.7026357650756836
      ],
      "type": "VEC3"
    },
    {
      "bufferView": 2,
      "byteOffset": 43980,
      "componentType": 5126,
      "count": 29,
      "max": [
        1.9322738964433483e-08,
        -1.0,
        6.515750072821902e-08
      ],
      "min": [
        -1.9322735411719805e-08,
        -1.0,
        -4.1281872142917564e-08
      ],
      "type": "VEC3"
    },
    {
      "bufferView": 1,
      "byteOffset": 14544,
      "componentType": 5126,
      "count": 29,
      "max": [
        1.0,
        1.0
      ],
      "min": [
        0.0,
        0.0
      ],
      "type": "VEC2"
    },
    {
      "bufferView": 0,
      "byteOffset": 23448,
      "componentType": 5125,
      "count": 84,
      "type": "SCALAR"
    },
    {
      "bufferView": 2,
      "byteOffset": 44328,
      "componentType": 5126,
      "count": 2369,
      "max": [
        1.6067179441452026,
        1.5592892169952393,
        1.3718602657318115
      ],
      "min": [
        -3.056373357772827,
        -2.0734946727752686,
        -0.04053231328725815
      ],
      "type": "VEC3"
    },
    {
      "bufferView": 2,
      "byteOffset": 72756,
      "componentType": 5126,
      "count": 2369,
      "max": [
        0.995498776435852,
        0.9995853304862976,
        1.0
      ],
      "min": [
        -0.9979960918426514,
        -0.9995853304862976,
        -1.0
      ],
      "type": "VEC3"
    },
    {
      "bufferView": 3,
      "byteOffset": 27776,
      "componentType": 5126,
      "count": 2369,
      "max": [
        1.0,
        0.9965313076972961,
        0.9957364797592163,
        1.0
      ],
      "min": [
        -1.0,
        -0.9999833703041077,
        -0.9957334399223328,
        -1.0
      ],
      "type": "VEC4"
    },
    {
      "bufferView": 1,
      "byteOffset": 14776,
      "componentType": 5126,
      "count": 2369,
      "max": [
        1.0706998109817505,
        0.9649438261985779
      ],
      "min": [
        0.018176715821027756,
        0.007689120247960091
      ],
      "type": "VEC2"
    },
    {
      "bufferView": 0,
      "byteOffset": 23784,
      "componentType": 5125,
      "count": 3924,
      "type": "SCALAR"
    }
  ],
  "asset": {
    "extras": {
      "author": "UROD Engine (https://sketchfab.com/Starven38)",
      "license": "CC-BY-SA-4.0 (http://creativecommons.org/licenses/by-sa/4.0/)",
      "source": "https://sketchfab.com/3d-models/personal-computer-aa398650fe6e4baa8771c71266d842f4",
      "title": "Personal Computer"
    },
    "generator": "Sketchfab-13.10.0",
    "version": "2.0"
  },
  "bufferViews": [
    {
      "buffer": 0,
      "byteLength": 39480,
      "name": "floatBufferViews",
      "target": 34963
    },
    {
      "buffer": 0,
      "byteLength": 33728,
      "byteOffset": 39480,
      "byteStride": 8,
      "name": "floatBufferViews",
      "target": 34962
    },
    {
      "buffer": 0,
      "byteLength": 101184,
      "byteOffset": 73208,
      "byteStride": 12,
      "name": "floatBufferViews",
      "target": 34962
    },
    {
      "buffer": 0,
      "byteLength": 65680,
      "byteOffset": 174392,
      "byteStride": 16,
      "name": "floatBufferViews",
      "target": 34962
    }
  ],
  "buffers": [
    {
      "byteLength": 240072,
      "uri": "scene.bin"
    }
  ],
  "extensionsUsed": [
    "KHR_texture_transform"
  ],
  "images": [
    {
      "uri": "textures/material_baseColor.png"
    },
    {
      "uri": "textures/material_metallicRoughness.png"
    },
    {
      "uri": "textures/material_normal.png"
    },
    {
      "uri": "textures/Screen_baseColor.png"
    },
    {
      "uri": "textures/Keyboard_baseColor.png"
    },
    {
      "uri": "textures/Keyboard_metallicRoughness.png"
    },
    {
      "uri": "textures/Keyboard_normal.png"
    }
  ],
  "materials": [
    {
      "doubleSided": true,
      "name": "material",
      "normalTexture": {
        "index": 2
      },
      "pbrMetallicRoughness": {
        "baseColorTexture": {
          "index": 0
        },
        "metallicRoughnessTexture": {
          "index": 1
        },
        "roughnessFactor": 0.4916770222658482
      }
    },
    {
      "doubleSided": true,
      "emissiveFactor": [
        0.4281833500678727,
        1.0,
        0.13286658767730739
      ],
      "name": "LightMat",
      "pbrMetallicRoughness": {
        "baseColorFactor": [
          0.051766289830066425,
          1.0,
          0.2564189296599347,
          1.0
        ],
        "metallicFactor": 0.0,
        "roughnessFactor": 0.8040408206
      }
    },
    {
      "doubleSided": true,
      "emissiveFactor": [
        1.0,
        1.0,
        1.0
      ],
      "emissiveTexture": {
        "index": 4
      },
      "name": "Screen",
      "pbrMetallicRoughness": {
        "baseColorTexture": {
          "extensions": {
            "KHR_texture_transform": {
              "scale": [
                1.000214506052654,
                1
              ]
            }
          },
          "index": 3
        },
        "metallicFactor": 0.565335056259219,
        "roughnessFactor": 0.278857992710073
      }
    },
    {
      "doubleSided": true,
      "name": "Keyboard",
      "normalTexture": {
        "index": 7
      },
      "pbrMetallicRoughness": {
        "baseColorTexture": {
          "index": 5
        },
        "metallicRoughnessTexture": {
          "index": 6
        }
      }
    }
  ],
  "meshes": [
    {
      "name": "Cube_PC_0",
      "primitives": [
        {
          "attributes": {
            "NORMAL": 1,
            "POSITION": 0,
            "TANGENT": 2,
            "TEXCOORD_0": 3
          },
          "indices": 4,
          "material": 0,
          "mode": 4
        }
      ]
    },
    {
      "name": "Cube_LightMat_0",
      "primitives": [
        {
          "attributes": {
            "NORMAL": 6,
            "POSITION": 5,
            "TEXCOORD_0": 7
          },
          "indices": 8,
          "material": 1,
          "mode": 4
        }
      ]
    },
    {
      "name": "Cube_Screen_0",
      "primitives": [
        {
          "attributes": {
            "NORMAL": 10,
            "POSITION": 9,
            "TEXCOORD_0": 11
          },
          "indices": 12,
          "material": 2,
          "mode": 4
        }
      ]
    },
    {
      "name": "Cube_Keyboard_0",
      "primitives": [
        {
          "attributes": {
            "NORMAL": 14,
            "POSITION": 13,
            "TANGENT": 15,
            "TEXCOORD_0": 16
          },
          "indices": 17,
          "material": 3,
          "mode": 4
        }
      ]
    }
  ],
  "nodes": [
    {
      "children": [
        1
      ],
      "matrix": [
        0.002877258462831378,
        0.0,
        0.0,
        0.0,
        0.0,
        6.388797186465962e-19,
        -0.002877258462831378,
        0.0,
        0.0,
        0.002877258462831378,
        6.388797186465962e-19,
        0.0,
        0.0,
        0.0,
        0.0,
        1.0
      ],
      "name": "Sketchfab_model"
    },
    {
      "children": [
        2
      ],
      "matrix": [
        1.0,
        0.0,
        0.0,
        0.0,
        0.0,
        0.0,
        1.0,
        0.0,
        0.0,
        -1.0,
        0.0,
        0.0,
        0.0,
        0.0,
        0.0,
        1.0
      ],
      "name": "eda352ebf8e8448da670d2ad9af8449d.fbx"
    },
    {
      "children": [
        3
      ],
      "name": "RootNode"
    },
    {
      "children": [
        4,
        5,
        6,
        7
      ],
      "matrix": [
        100.0,
        0.0,
        0.0,
        0.0,
        0.0,
        -1.629206793918314e-05,
        -99.99999999999868,
        0.0,
        0.0,
        99.99999999999868,
        -1.629206793918314e-05,
        0.0,
        0.0,
        0.0,
        0.0,
        1.0
      ],
      "name": "Cube"
    },
    {
      "mesh": 0,
      "name": "Cube_PC_0"
    },
    {
      "mesh": 1,
      "name": "Cube_LightMat_0"
    },
    {
      "mesh": 2,
      "name": "Cube_Screen_0"
    },
    {
      "mesh": 3,
      "name": "Cube_Keyboard_0"
    }
  ],
  "samplers": [
    {
      "magFilter": 9729,
      "minFilter": 9987,
      "wrapS": 10497,
      "wrapT": 10497
    },
    {
      "magFilter": 9728,
      "minFilter": 9728,
      "wrapS": 10497,
      "wrapT": 10497
    }
  ],
  "scene": 0,
  "scenes": [
    {
      "name": "Sketchfab_Scene",
      "nodes": [
        0
      ]
    }
  ],
  "textures": [
    {
      "sampler": 0,
      "source": 0
    },
    {
      "sampler": 0,
      "source": 1
    },
    {
      "sampler": 0,
      "source": 2
    },
    {
      "sampler": 1,
      "source": 3
    },
    {
      "sampler": 0,
      "source": 3
    },
    {
      "sampler": 1,
      "source": 4
    },
    {
      "sampler": 0,
      "source": 5
    },
    {
      "sampler": 0,
      "source": 6
    }
  ]
}
